<?xml version="1.0" encoding="UTF-8"?>
<svg id="Layer_1" data-name="Layer 1" xmlns="http://www.w3.org/2000/svg" viewBox="0 0 232 232">
  <g>
    <path d="M117.43,101.75c5.2.2,9.69,1.11,13.61,2.54,3.29,1.21,2.4-3.49,4.65-8.38-7.68-.73-12.74-4.3-15-6.65-.77,2.57-2.56,6.14-4.86,9.14-1.03,1.34-.09,3.29,1.6,3.35Z" fill="#94a0d0" stroke-width="0"></path>
    <path d="M116.07,188.56c22.83,0,41.33-18.5,41.33-41.33s-18.5-41.33-41.33-41.33-41.33,18.5-41.33,41.33,18.5,41.33,41.33,41.33ZM116.07,133.58c7.54,0,13.65,6.11,13.65,13.65s-6.11,13.65-13.65,13.65-13.65-6.11-13.65-13.65,6.11-13.65,13.65-13.65Z" fill="#94a0d0" stroke-width="0"></path>
    <path d="M117.17,48.76c-3.29,0-20.5,11.33-20.5,31.54h24.22c4.11,12.08,17.09,11.67,18.28,11.67,2.91-33.55-19.09-43.21-22.01-43.21ZM134.3,80.23c1.91,1.91,2.55,4.57,1.88,6.82-2.25.67-4.91.03-6.82-1.88-1.91-1.91-2.55-4.57-1.88-6.82,2.25-.67,4.91-.03,6.82,1.88Z" fill="#94a0d0" stroke-width="0"></path>
    <path d="M86.24,84.99c-10.68,2.9-18.55,12.68-18.55,24.26,0,7.03,2.91,13.39,7.58,17.96.64-1.29,1.33-2.55,2.09-3.78-3.43-3.74-5.53-8.72-5.53-14.19,0-11.58,9.42-21.01,21.01-21.01,2.87,0,5.4-1.53,6.79-3.82h-9.06c-1.46,0-2.92.18-4.32.57Z" fill="#94a0d0" stroke-width="0"></path>
    <path d="M92.82,89.82c-10.68,0-19.38,8.69-19.38,19.38,0,4.9,1.83,9.37,4.84,12.79.79-1.18,1.64-2.32,2.53-3.42-2.02-2.59-3.23-5.84-3.23-9.37,0-8.41,6.84-15.24,15.24-15.24,6.09,0,11.26-4.01,13.02-9.53h-4.44c-1.54,3.19-4.81,5.39-8.58,5.39Z" fill="#94a0d0" stroke-width="0"></path>
    <path d="M92.82,95.53c-7.53,0-13.66,6.13-13.66,13.66,0,3.04,1,5.86,2.69,8.13.93-1.06,1.9-2.07,2.92-3.04-.94-1.47-1.48-3.22-1.48-5.09,0-5.25,4.27-9.53,9.53-9.53,9.27,0,17.03-6.54,18.93-15.24h-4.26c-1.81,6.4-7.7,11.11-14.67,11.11Z" fill="#94a0d0" stroke-width="0"></path>
    <path d="M92.82,101.3c-4.39,0-7.95,3.57-7.95,7.95,0,1.45.39,2.8,1.07,3.97,1.06-.94,2.16-1.83,3.3-2.67-.15-.41-.23-.85-.23-1.3,0-2.11,1.71-3.82,3.82-3.82,12.45,0,22.82-9.1,24.79-21.01h-4.2c-1.93,9.61-10.43,16.87-20.6,16.87Z" fill="#94a0d0" stroke-width="0"></path>
    <path d="M173.62,209.57c-14.11,0-20.98-1.97-28.24-4.05-7.22-2.07-14.68-4.21-29.38-4.21s-22.16,2.14-29.38,4.21c-7.26,2.08-14.13,4.05-28.24,4.05s-20.98-1.97-28.24-4.05c-7.22-2.07-14.68-4.21-29.38-4.21v4.13c14.11,0,20.98,1.97,28.24,4.05,7.22,2.07,14.68,4.21,29.38,4.21s22.16-2.14,29.38-4.21c7.26-2.08,14.13-4.05,28.24-4.05s20.98,1.97,28.24,4.05c7.22,2.07,14.68,4.21,29.38,4.21s22.16-2.14,29.38-4.21c7.26-2.08,14.13-4.05,28.24-4.05v-4.13c-14.7,0-22.16,2.14-29.38,4.21-7.26,2.08-14.13,4.05-28.24,4.05Z" fill="#94a0d0" stroke-width="0"></path>
    <path d="M173.62,218.06c-14.11,0-20.98-1.97-28.24-4.05-7.22-2.07-14.68-4.21-29.38-4.21s-22.16,2.14-29.38,4.21c-7.26,2.08-14.13,4.05-28.24,4.05s-20.98-1.97-28.24-4.05c-7.22-2.07-14.68-4.21-29.38-4.21v4.13c14.11,0,20.98,1.97,28.24,4.05,7.22,2.07,14.68,4.21,29.38,4.21s22.16-2.14,29.38-4.21c7.26-2.08,14.13-4.05,28.24-4.05s20.98,1.97,28.24,4.05c7.22,2.07,14.68,4.21,29.38,4.21s22.16-2.14,29.38-4.21c7.26-2.08,14.13-4.05,28.24-4.05v-4.13c-14.7,0-22.16,2.14-29.38,4.21-7.26,2.08-14.13,4.05-28.24,4.05Z" fill="#94a0d0" stroke-width="0"></path>
    <path d="M173.62,226.54c-14.11,0-20.98-1.97-28.24-4.05-7.22-2.07-14.68-4.21-29.38-4.21s-22.16,2.14-29.38,4.21c-7.26,2.08-14.13,4.05-28.24,4.05s-20.98-1.97-28.24-4.05c-7.22-2.07-14.68-4.21-29.38-4.21v4.13c14.11,0,20.98,1.97,28.24,4.05,7.22,2.07,14.68,4.21,29.38,4.21s22.16-2.14,29.38-4.21c7.26-2.08,14.13-4.05,28.24-4.05s20.98,1.97,28.24,4.05c7.22,2.07,14.68,4.21,29.38,4.21s22.16-2.14,29.38-4.21c7.26-2.08,14.13-4.05,28.24-4.05v-4.13c-14.7,0-22.16,2.14-29.38,4.21-7.26,2.08-14.13,4.05-28.24,4.05Z" fill="#94a0d0" stroke-width="0"></path>
  </g>
  <path d="M201.86,197.04c-3.73,1.07-7.36,2.11-11.93,2.87,28.06-13.37,42.2-48.5,26.38-78.93l-22.87-43.98c-1.12-2.15-.19-4.79,2.02-5.77,2.02-.89,4.39-.06,5.42,1.9l9.93,19.09,2.03-.95c4.59-2.14,6.47-7.68,4.13-12.18l-8.52-16.37c-.52-1.01-.35-2.24.44-3.06,2.19-2.27,2.68-5.68,1.23-8.47l-16.22-31.21-7.52,4.01,4.1,7.82c.61,1.17.17,2.62-1,3.25l-1.84.98-5.16-9.96-7.52,4.01,4.08,7.84c.61,1.17.16,2.62-1,3.24l-.17.09c-14.07,7.51-19.49,24.94-12.15,39.1l19.7,38.06c7.66,14.81-.53,32.07-15.32,36.58L142.13,12.75c.99-.9,1.53-2.26,1.29-3.68-.36-2.21-3.55-8.1-5.77-7.73-2.21.36-2.61,6.84-2.25,9.05.25,1.52,1.31,2.7,2.67,3.18l.16.8c-.08,0-.16.01-.24.03l-26.58,7.88c-.51.15-1.05-.16-1.16-.69l-.88-4.11c-.11-.52-.65-.84-1.16-.69l-40.26,11.94c-.46.14-.74.6-.64,1.07l3.8,18.35c.11.53.65.85,1.16.7l29.37-8.71c.53-.16,1.07.18,1.17.72l.73,4.09c.1.54.64.88,1.17.72l37.5-11.12,23.85,121.32c-1.16.16-2.36.24-3.58.24h-1.81c-4.14,20.83-22.56,36.59-44.59,36.59s-40.45-15.75-44.59-36.59h-1.83c-19.35,0-31.83-20.5-22.94-37.69l11.72-22.65c6.71-12.98-2.71-28.45-17.32-28.45h-.48c-7.39,0-14.07,3.97-17.55,10.34l-.31.57c-3.34,6.11,1.09,13.56,8.05,13.56h0l-15.17,29.28c-15.77,30.42-1.62,65.5,26.42,78.86-4.56-.76-8.19-1.8-11.93-2.87-7.22-2.07-14.68-4.21-29.38-4.21v4.13c14.11,0,20.98,1.97,28.24,4.05,7.22,2.07,14.68,4.21,29.38,4.21s22.16-2.14,29.38-4.21c7.26-2.08,14.13-4.05,28.24-4.05s20.98,1.97,28.24,4.05c7.22,2.07,14.68,4.21,29.38,4.21s22.16-2.14,29.38-4.21c7.26-2.08,14.13-4.05,28.24-4.05v-4.13c-14.7,0-22.16,2.14-29.38,4.21ZM194.84,48.41c2.29,0,4.14,1.85,4.14,4.14s-1.85,4.14-4.14,4.14-4.14-1.85-4.14-4.14,1.85-4.14,4.14-4.14Z" fill="#94a0d0" stroke-width="0"></path>
</svg>