<?xml version="1.0" encoding="UTF-8"?>
<svg id="Layer_1" data-name="Layer 1" xmlns="http://www.w3.org/2000/svg" viewBox="0 0 350 360">
  <g>
    <path d="M59.57,286.64h7.92c6.39,0,9.9,3.5,9.9,14.43s-3.5,14.43-9.9,14.43h-7.92v-28.86ZM67.28,293.2v15.75h.33c1.28,0,1.98-1.15,1.98-7.88s-.7-7.88-1.98-7.88h-.33Z" fill="#94a0d0" stroke-width="0"></path>
    <path d="M80.6,286.64h7.67v28.86h-7.67v-28.86Z" fill="#94a0d0" stroke-width="0"></path>
    <path d="M95.66,286.64h9.86l4.58,28.86h-7.26l-.58-4.82h-3.63l-.58,4.82h-7.01l4.62-28.86ZM99.33,304.95h2.27l-1.11-10.6-1.15,10.6Z" fill="#94a0d0" stroke-width="0"></path>
    <path d="M112.85,286.64h8.99c5.2,0,8.16,2.76,8.16,7.75,0,3.05-1.15,5.28-3.18,6.51,2.19,1.2,3.42,3.42,3.42,6.51,0,5.2-3.22,8.08-8.37,8.08h-9.03v-28.86ZM120.44,292.5v5.81h.54c1.11,0,1.69-.87,1.69-2.89s-.58-2.93-1.69-2.93h-.54ZM120.44,303.71v6.02h.58c1.11,0,1.69-.82,1.69-3.01s-.58-3.01-1.69-3.01h-.58Z" fill="#94a0d0" stroke-width="0"></path>
    <path d="M133.31,286.64h7.71v22.51h6.93v6.35h-14.64v-28.86Z" fill="#94a0d0" stroke-width="0"></path>
    <path d="M150.17,301.07c0-10.72,2.93-14.89,9.03-14.89s9.03,4.16,9.03,14.89-2.89,14.89-9.03,14.89-9.03-4.16-9.03-14.89ZM160.48,301.07c0-6.89-.41-8.29-1.28-8.29s-1.28,1.4-1.28,8.29.41,8.29,1.28,8.29,1.28-1.4,1.28-8.29Z" fill="#94a0d0" stroke-width="0"></path>
    <path d="M192.36,315.51h-9.86l-4.62-28.86h7.42l1.15,9.98,1.07,10.23,1.11-10.23,1.15-9.98h7.17l-4.62,28.86Z" fill="#94a0d0" stroke-width="0"></path>
    <path d="M200.65,286.64h9.86l4.58,28.86h-7.26l-.58-4.82h-3.63l-.58,4.82h-7.01l4.62-28.86ZM204.32,304.95h2.27l-1.11-10.6-1.15,10.6Z" fill="#94a0d0" stroke-width="0"></path>
    <path d="M217.85,286.64h7.71v22.51h6.93v6.35h-14.64v-28.86Z" fill="#94a0d0" stroke-width="0"></path>
    <path d="M235.62,286.64h7.71v22.51h6.93v6.35h-14.64v-28.86Z" fill="#94a0d0" stroke-width="0"></path>
    <path d="M253.4,286.64h14.68v6.43h-6.97v4.66h5.44v6.27h-5.44v5.24h6.97v6.27h-14.68v-28.86Z" fill="#94a0d0" stroke-width="0"></path>
    <path d="M276.49,306.1l-5.9-19.46h7.5l2.35,10.06,2.39-10.06h7.22l-5.9,19.46v9.4h-7.67v-9.4Z" fill="#94a0d0" stroke-width="0"></path>
    <path d="M123.18,336.28c-.04-5.24-.45-6.64-1.2-6.64-.87,0-1.24,1.44-1.24,8.29s.37,8.29,1.24,8.29c.74,0,1.15-1.4,1.2-6.72h7.46c-.16,9.28-3.01,13.32-8.82,13.32s-8.82-4.33-8.82-14.89,2.76-14.89,8.82-14.89,8.66,4.04,8.82,13.24h-7.46Z" fill="#94a0d0" stroke-width="0"></path>
    <path d="M133.53,337.93c0-10.72,2.93-14.89,9.03-14.89s9.03,4.16,9.03,14.89-2.89,14.89-9.03,14.89-9.03-4.16-9.03-14.89ZM143.84,337.93c0-6.89-.41-8.29-1.28-8.29s-1.28,1.4-1.28,8.29.41,8.29,1.28,8.29,1.28-1.4,1.28-8.29Z" fill="#94a0d0" stroke-width="0"></path>
    <path d="M154.73,323.5h7.71v22.51h6.93v6.35h-14.64v-28.86Z" fill="#94a0d0" stroke-width="0"></path>
    <path d="M172.51,323.5h7.71v22.51h6.93v6.35h-14.64v-28.86Z" fill="#94a0d0" stroke-width="0"></path>
    <path d="M190.28,323.5h14.68v6.43h-6.97v4.66h5.44v6.27h-5.44v5.24h6.97v6.27h-14.68v-28.86Z" fill="#94a0d0" stroke-width="0"></path>
    <path d="M218.4,349.11c-1.03,2.43-2.6,3.63-4.62,3.63-4.29,0-6.35-4.37-6.35-14.76,0-11.05,2.89-14.93,8.82-14.93,5.28,0,8.41,3.26,8.58,11.05h-7.13c-.12-3.34-.58-4.54-1.32-4.54-.82,0-1.32,1.28-1.32,8.41s.66,8.45,1.61,8.45c.7,0,1.32-.87,1.44-4.62h-1.61v-5.61h8.41v16.16h-6.43l-.08-3.26Z" fill="#94a0d0" stroke-width="0"></path>
    <path d="M228.22,323.5h14.68v6.43h-6.97v4.66h5.44v6.27h-5.44v5.24h6.97v6.27h-14.68v-28.86Z" fill="#94a0d0" stroke-width="0"></path>
  </g>
  <g>
    <path d="M89.24,32.54l3.68-1.89c2.72-1.4,5.23-.43,6.78,2.59,1.54,3,.91,5.64-1.81,7.03l-1.01.52,3.48,6.78-2.7,1.38-8.43-16.42ZM93.14,33.51l2.58,5.02.89-.46c1.06-.54,1.35-1.7.48-3.39-.88-1.71-2-2.17-3.06-1.63l-.89.46Z" fill="#94a0d0" stroke-width="0"></path>
    <path d="M99.83,27.28l2.76-1.25,7.58,16.82-2.76,1.25-7.58-16.82Z" fill="#94a0d0" stroke-width="0"></path>
    <path d="M108.89,26.27l-2.77,1.09-.97-2.48,8.42-3.3.97,2.48-2.8,1.1,5.77,14.71-2.85,1.12-5.77-14.71Z" fill="#94a0d0" stroke-width="0"></path>
    <path d="M123.83,26.14c-1.31-3.62-2.3-4.63-3.15-4.36-1,.32-1.11,2.07.47,6.97,1.59,4.94,2.68,6.26,3.68,5.93.9-.29,1.08-1.71-.07-5.63l2.69-.87c1.67,5.61.77,8.23-1.84,9.07-2.86.92-5.24-1.03-7.35-7.58-2.11-6.55-1.32-9.52,1.54-10.44,2.59-.83,4.8.72,6.71,6.04l-2.69.87Z" fill="#94a0d0" stroke-width="0"></path>
    <path d="M127.26,17.22l2.94-.73,1.82,7.34,2.76-.68-1.82-7.34,2.94-.73,4.43,17.91-2.94.73-1.98-7.98-2.76.68,1.98,7.98-2.94.73-4.43-17.91Z" fill="#94a0d0" stroke-width="0"></path>
    <path d="M151.82,19.98c-.68-3.79-1.49-4.95-2.38-4.82-1.04.15-1.44,1.86-.7,6.95.74,5.14,1.59,6.62,2.64,6.46.94-.14,1.35-1.5.88-5.56l2.79-.4c.71,5.81-.62,8.24-3.33,8.63-2.97.43-4.99-1.89-5.97-8.7-.98-6.81.29-9.6,3.27-10.03,2.69-.39,4.61,1.52,5.6,7.08l-2.79.4Z" fill="#94a0d0" stroke-width="0"></path>
    <path d="M157.22,20.96c-.49-6.62.9-9.56,4.08-9.79,3.15-.23,4.97,2.46,5.46,9.08.49,6.63-.9,9.56-4.06,9.79-3.18.24-4.99-2.46-5.49-9.08ZM163.74,20.48c-.35-4.76-1.08-6.74-2.24-6.65-1.18.09-1.61,2.16-1.26,6.91.35,4.76,1.08,6.74,2.27,6.65,1.16-.09,1.58-2.15,1.23-6.91Z" fill="#94a0d0" stroke-width="0"></path>
    <path d="M169.67,10.81l4.19.07.59,7.29.62,7.29.83-7.27.86-7.27,4.14.07-.3,18.46-2.58-.04.23-9.15.18-6.46-.84,6.45-1.2,9.13-2.82-.05-.91-9.17-.64-6.39-.05,6.38-.07,9.15-2.53-.04.3-18.46Z" fill="#94a0d0" stroke-width="0"></path>
    <path d="M184.19,11.1l4.13.31c3.05.23,4.69,2.37,4.43,5.76-.26,3.37-2.17,5.28-5.22,5.05l-1.13-.09-.58,7.6-3.02-.23,1.4-18.4ZM187.01,13.96l-.43,5.63,1,.08c1.18.09,2.04-.74,2.18-2.64.15-1.92-.57-2.9-1.76-2.99l-1-.08Z" fill="#94a0d0" stroke-width="0"></path>
    <path d="M196.19,12.14l7.62,1.07-.37,2.64-4.62-.65-.69,4.91,3.45.49-.37,2.61-3.45-.49-.78,5.54,4.62.65-.36,2.58-7.62-1.07,2.57-18.28Z" fill="#94a0d0" stroke-width="0"></path>
    <path d="M209.02,16.89l-2.92-.6.54-2.61,8.86,1.83-.54,2.61-2.95-.61-3.19,15.47-3-.62,3.19-15.47Z" fill="#94a0d0" stroke-width="0"></path>
    <path d="M218.14,16.2l2.94.76-4.61,17.87-2.94-.76,4.61-17.87Z" fill="#94a0d0" stroke-width="0"></path>
    <path d="M225.83,21.07l-2.85-.89.79-2.54,8.64,2.69-.79,2.54-2.87-.89-4.7,15.08-2.92-.91,4.7-15.08Z" fill="#94a0d0" stroke-width="0"></path>
    <path d="M234.95,21.27l2.85,1.04-6.36,17.34-2.85-1.04,6.36-17.34Z" fill="#94a0d0" stroke-width="0"></path>
    <path d="M237.02,31.84c2.61-6.11,5.2-8.07,8.13-6.82,2.91,1.24,3.28,4.47.67,10.58-2.61,6.11-5.2,8.07-8.11,6.83-2.93-1.25-3.3-4.48-.69-10.59ZM243.04,34.41c1.88-4.39,2.14-6.48,1.07-6.94-1.09-.47-2.42,1.17-4.3,5.56s-2.14,6.48-1.05,6.95c1.07.46,2.4-1.18,4.27-5.57Z" fill="#94a0d0" stroke-width="0"></path>
    <path d="M252.41,28.52l3.19,1.64-1.89,7.09-1.96,7.05,6.41-12.83,2.23,1.14-8.43,16.42-3.21-1.65,1.88-7.07,1.97-7.02-3.19,6.39-3.22,6.38-2.2-1.13,8.43-16.42Z" fill="#94a0d0" stroke-width="0"></path>
  </g>
  <g>
    <g>
      <path d="M176.24,145.96c5.2.2,9.69,1.11,13.61,2.54,3.29,1.21,2.4-3.49,4.65-8.38-7.68-.73-12.74-4.3-15-6.65-.77,2.57-2.56,6.14-4.86,9.14-1.03,1.34-.09,3.29,1.6,3.35Z" fill="#94a0d0" stroke-width="0"></path>
      <path d="M174.89,232.77c22.83,0,41.33-18.5,41.33-41.33s-18.5-41.33-41.33-41.33-41.33,18.5-41.33,41.33,18.5,41.33,41.33,41.33ZM174.89,177.79c7.54,0,13.65,6.11,13.65,13.65s-6.11,13.65-13.65,13.65-13.65-6.11-13.65-13.65,6.11-13.65,13.65-13.65Z" fill="#94a0d0" stroke-width="0"></path>
      <path d="M175.98,92.96c-3.29,0-20.5,11.33-20.5,31.54h24.22c4.11,12.08,17.09,11.67,18.28,11.67,2.91-33.55-19.09-43.21-22.01-43.21ZM193.12,124.44c1.91,1.91,2.55,4.57,1.88,6.82-2.25.67-4.91.03-6.82-1.88-1.91-1.91-2.55-4.57-1.88-6.82,2.25-.67,4.91-.03,6.82,1.88Z" fill="#94a0d0" stroke-width="0"></path>
      <path d="M145.05,129.2c-10.68,2.9-18.55,12.68-18.55,24.26,0,7.03,2.91,13.39,7.58,17.96.64-1.29,1.33-2.55,2.09-3.78-3.43-3.74-5.53-8.72-5.53-14.19,0-11.58,9.42-21.01,21.01-21.01,2.87,0,5.4-1.53,6.79-3.82h-9.06c-1.46,0-2.92.18-4.32.57Z" fill="#94a0d0" stroke-width="0"></path>
      <path d="M151.64,134.03c-10.68,0-19.38,8.69-19.38,19.38,0,4.9,1.83,9.37,4.84,12.79.79-1.18,1.64-2.32,2.53-3.42-2.02-2.59-3.23-5.84-3.23-9.37,0-8.41,6.84-15.24,15.24-15.24,6.09,0,11.26-4.01,13.02-9.53h-4.44c-1.54,3.19-4.81,5.39-8.58,5.39Z" fill="#94a0d0" stroke-width="0"></path>
      <path d="M151.64,139.74c-7.53,0-13.66,6.13-13.66,13.66,0,3.04,1,5.86,2.69,8.13.93-1.06,1.9-2.07,2.92-3.04-.94-1.47-1.48-3.22-1.48-5.09,0-5.25,4.27-9.53,9.53-9.53,9.27,0,17.03-6.54,18.93-15.24h-4.26c-1.81,6.4-7.7,11.11-14.67,11.11Z" fill="#94a0d0" stroke-width="0"></path>
      <path d="M151.64,145.51c-4.39,0-7.95,3.57-7.95,7.95,0,1.45.39,2.8,1.07,3.97,1.06-.94,2.16-1.83,3.3-2.67-.15-.41-.23-.85-.23-1.3,0-2.11,1.71-3.82,3.82-3.82,12.45,0,22.82-9.1,24.79-21.01h-4.2c-1.93,9.61-10.43,16.87-20.6,16.87Z" fill="#94a0d0" stroke-width="0"></path>
      <path d="M232.43,253.78c-14.11,0-20.98-1.97-28.24-4.05-7.22-2.07-14.68-4.21-29.38-4.21s-22.16,2.14-29.38,4.21c-7.26,2.08-14.13,4.05-28.24,4.05s-20.98-1.97-28.24-4.05c-7.22-2.07-14.68-4.21-29.38-4.21v4.13c14.11,0,20.98,1.97,28.24,4.05,7.22,2.07,14.68,4.21,29.38,4.21s22.16-2.14,29.38-4.21c7.26-2.08,14.13-4.05,28.24-4.05s20.98,1.97,28.24,4.05c7.22,2.07,14.68,4.21,29.38,4.21s22.16-2.14,29.38-4.21c7.26-2.08,14.13-4.05,28.24-4.05v-4.13c-14.7,0-22.16,2.14-29.38,4.21-7.26,2.08-14.13,4.05-28.24,4.05Z" fill="#94a0d0" stroke-width="0"></path>
      <path d="M232.43,262.27c-14.11,0-20.98-1.97-28.24-4.05-7.22-2.07-14.68-4.21-29.38-4.21s-22.16,2.14-29.38,4.21c-7.26,2.08-14.13,4.05-28.24,4.05s-20.98-1.97-28.24-4.05c-7.22-2.07-14.68-4.21-29.38-4.21v4.13c14.11,0,20.98,1.97,28.24,4.05,7.22,2.07,14.68,4.21,29.38,4.21s22.16-2.14,29.38-4.21c7.26-2.08,14.13-4.05,28.24-4.05s20.98,1.97,28.24,4.05c7.22,2.07,14.68,4.21,29.38,4.21s22.16-2.14,29.38-4.21c7.26-2.08,14.13-4.05,28.24-4.05v-4.13c-14.7,0-22.16,2.14-29.38,4.21-7.26,2.08-14.13,4.05-28.24,4.05Z" fill="#94a0d0" stroke-width="0"></path>
      <path d="M232.43,270.75c-14.11,0-20.98-1.97-28.24-4.05-7.22-2.07-14.68-4.21-29.38-4.21s-22.16,2.14-29.38,4.21c-7.26,2.08-14.13,4.05-28.24,4.05s-20.98-1.97-28.24-4.05c-7.22-2.07-14.68-4.21-29.38-4.21v4.13c14.11,0,20.98,1.97,28.24,4.05,7.22,2.07,14.68,4.21,29.38,4.21s22.16-2.14,29.38-4.21c7.26-2.08,14.13-4.05,28.24-4.05s20.98,1.97,28.24,4.05c7.22,2.07,14.68,4.21,29.38,4.21s22.16-2.14,29.38-4.21c7.26-2.08,14.13-4.05,28.24-4.05v-4.13c-14.7,0-22.16,2.14-29.38,4.21-7.26,2.08-14.13,4.05-28.24,4.05Z" fill="#94a0d0" stroke-width="0"></path>
    </g>
    <path d="M260.68,241.24c-3.73,1.07-7.36,2.11-11.93,2.87,28.06-13.37,42.2-48.5,26.38-78.93l-22.87-43.98c-1.12-2.15-.19-4.79,2.02-5.77,2.02-.89,4.39-.06,5.42,1.9l9.93,19.09,2.03-.95c4.59-2.14,6.47-7.68,4.13-12.18l-8.52-16.37c-.52-1.01-.35-2.24.44-3.06,2.19-2.27,2.68-5.68,1.23-8.47l-16.22-31.21-7.52,4.01,4.1,7.82c.61,1.17.17,2.62-1,3.25l-1.84.98-5.16-9.96-7.52,4.01,4.08,7.84c.61,1.17.16,2.62-1,3.24l-.17.09c-14.07,7.51-19.49,24.94-12.15,39.1l19.7,38.06c7.66,14.81-.53,32.07-15.32,36.58l-27.96-142.23c.99-.9,1.53-2.26,1.29-3.68-.36-2.21-3.55-8.1-5.77-7.73-2.21.36-2.61,6.84-2.25,9.05.25,1.52,1.31,2.7,2.67,3.18l.16.8c-.08,0-.16.01-.24.03l-26.58,7.88c-.51.15-1.05-.16-1.16-.69l-.88-4.11c-.11-.52-.65-.84-1.16-.69l-40.26,11.94c-.46.14-.74.6-.64,1.07l3.8,18.35c.11.53.65.85,1.16.7l29.37-8.71c.53-.16,1.07.18,1.17.72l.73,4.09c.1.54.64.88,1.17.72l37.5-11.12,23.85,121.32c-1.16.16-2.36.24-3.58.24h-1.81c-4.14,20.83-22.56,36.59-44.59,36.59s-40.45-15.75-44.59-36.59h-1.83c-19.35,0-31.83-20.5-22.94-37.69l11.72-22.65c6.71-12.98-2.71-28.45-17.32-28.45h-.48c-7.39,0-14.07,3.97-17.55,10.34l-.31.57c-3.34,6.11,1.09,13.56,8.05,13.56h0l-15.17,29.28c-15.77,30.42-1.62,65.5,26.42,78.86-4.56-.76-8.19-1.8-11.93-2.87-7.22-2.07-14.68-4.21-29.38-4.21v4.13c14.11,0,20.98,1.97,28.24,4.05,7.22,2.07,14.68,4.21,29.38,4.21s22.16-2.14,29.38-4.21c7.26-2.08,14.13-4.05,28.24-4.05s20.98,1.97,28.24,4.05c7.22,2.07,14.68,4.21,29.38,4.21s22.16-2.14,29.38-4.21c7.26-2.08,14.13-4.05,28.24-4.05v-4.13c-14.7,0-22.16,2.14-29.38,4.21ZM253.66,92.62c2.29,0,4.14,1.85,4.14,4.14s-1.85,4.14-4.14,4.14-4.14-1.85-4.14-4.14,1.85-4.14,4.14-4.14Z" fill="#94a0d0" stroke-width="0"></path>
  </g>
</svg>